HIERARCHY
ROOT root
{
	OFFSET 0.000000 0.000000 0.000000
	CHANNELS 6 Xposition Yposition Zposition Zrotation Yrotation Xrotation
	JOINT lhip
	{
		OFFSET 0.058581 -0.082280 -0.017664
		CHANNELS 3 Zrotation Yrotation Xrotation
		JOINT lknee
		{
			OFFSET 0.043451 -0.386469 0.008037
			CHANNELS 3 Zrotation Yrotation Xrotation
			JOINT lankle
			{
				OFFSET -0.014790 -0.426874 -0.037428
				CHANNELS 3 Zrotation Yrotation Xrotation
				JOINT ltoe
				{
					OFFSET 0.041054 -0.060286 0.122042
					CHANNELS 3 Zrotation Yrotation Xrotation
					End Site
					{
						OFFSET 0.000000 0.000000 0.000000
					}
				}
			}
		}
	}
	JOINT rhip
	{
		OFFSET -0.060310 -0.090513 -0.013543
		CHANNELS 3 Zrotation Yrotation Xrotation
		JOINT rknee
		{
			OFFSET -0.043257 -0.383688 -0.004843
			CHANNELS 3 Zrotation Yrotation Xrotation
			JOINT rankle
			{
				OFFSET 0.019056 -0.420046 -0.034562
				CHANNELS 3 Zrotation Yrotation Xrotation
				JOINT rtoe
				{
					OFFSET -0.034840 -0.062106 0.130323
					CHANNELS 3 Zrotation Yrotation Xrotation
					End Site
					{
						OFFSET 0.000000 0.000000 0.000000
					}
				}
			}
		}
	}
	JOINT lowerback
	{
		OFFSET 0.004439 0.124404 -0.038385
		CHANNELS 3 Zrotation Yrotation Xrotation
		JOINT upperback
		{
			OFFSET 0.004488 0.137956 0.026820
			CHANNELS 3 Zrotation Yrotation Xrotation
			JOINT chest
			{
				OFFSET -0.002265 0.056032 0.002855
				CHANNELS 3 Zrotation Yrotation Xrotation
				JOINT lowerneck
				{
					OFFSET -0.013390 0.211636 -0.033468
					CHANNELS 3 Zrotation Yrotation Xrotation
					JOINT upperneck
					{
						OFFSET 0.010113 0.088937 0.050410
						CHANNELS 3 Zrotation Yrotation Xrotation
						End Site
						{
							OFFSET 0.000000 0.000000 0.000000
						}
					}
				}
				JOINT lclavicle
				{
					OFFSET 0.071702 0.114000 -0.018898
					CHANNELS 3 Zrotation Yrotation Xrotation
					JOINT lshoulder
					{
						OFFSET 0.122921 0.045205 -0.019046
						CHANNELS 3 Zrotation Yrotation Xrotation
						JOINT lelbow
						{
							OFFSET 0.255332 -0.015649 -0.022946
							CHANNELS 3 Zrotation Yrotation Xrotation
							JOINT lwrist
							{
								OFFSET 0.265709 0.012698 -0.007375
								CHANNELS 3 Zrotation Yrotation Xrotation
								End Site
								{
									OFFSET 0.000000 0.000000 0.000000
								}
							}
						}
					}
				}
				JOINT rclavicle
				{
					OFFSET -0.082954 0.112472 -0.023707
					CHANNELS 3 Zrotation Yrotation Xrotation
					JOINT rshoulder
					{
						OFFSET -0.113228 0.046853 -0.008472
						CHANNELS 3 Zrotation Yrotation Xrotation
						JOINT relbow
						{
							OFFSET -0.260127 -0.014369 -0.031269
							CHANNELS 3 Zrotation Yrotation Xrotation
							JOINT rwrist
							{
								OFFSET -0.269108 0.006794 -0.006027
								CHANNELS 3 Zrotation Yrotation Xrotation
								End Site
								{
									OFFSET 0.000000 0.000000 0.000000
								}
							}
						}
					}
				}
			}
		}
	}
}
MOTION
Frames: 10
Frame Time: 0.033333
0.179582 0.423488 0.999717 26.805798 -5.663944 90.528839 1.611880 -1.190405 -7.314349 -3.795006 4.718661 27.314456 0.471821 12.689928 -13.984214 0.000000 -0.000000 0.000000 -2.407807 2.195878 -3.869114 -2.286345 11.932511 12.042655 1.785987 1.213573 -13.584981 0.000000 -0.000000 0.000000 4.512480 -1.879646 13.009252 6.204976 -4.089247 3.899796 1.075654 -1.823532 0.481594 4.865575 -22.437884 0.711767 -0.815196 -22.503009 23.240218 -26.044991 -4.692842 5.442557 -63.370870 -20.714301 29.506473 177.082226 -77.784298 -162.616506 25.288675 2.289037 -48.415017 29.925455 9.250343 7.609291 37.178650 18.731757 7.423502 -22.005656 27.949697 -10.158900 -36.290443 22.584947 14.548542 
0.184021 0.417256 0.999253 25.483864 -5.473520 90.699338 1.127904 -2.218607 -8.520381 -3.214322 3.500600 23.911683 0.347509 12.831012 -14.339136 0.000000 -0.000000 0.000000 -2.439388 2.666996 -3.243565 -2.076659 12.867562 11.488818 2.487934 1.079127 -13.671905 0.000000 -0.000000 0.000000 4.988726 -1.684815 13.719692 6.417525 -4.185443 4.151773 1.208623 -1.680445 0.575676 5.303269 -22.128211 0.033029 -0.928154 -22.692824 22.875175 -26.307401 -5.180355 5.407956 -63.444658 -20.413824 29.906162 177.477964 -78.539335 -162.794150 26.432778 2.524547 -48.460165 29.562851 9.888261 7.684555 37.608951 19.703882 7.346564 -23.088055 26.169222 -12.630432 -39.662850 22.684598 12.996312 
0.187729 0.411105 0.998384 23.783610 -5.131946 91.163386 0.770735 -2.723444 -10.270230 -2.377453 2.361115 20.906614 0.367448 12.264504 -13.875302 0.000000 -0.000000 0.000000 -2.124789 3.060456 -3.216993 -2.259570 13.415579 11.266962 2.597229 1.684750 -13.839666 0.000000 -0.000000 0.000000 5.241423 -1.399807 14.392520 6.581138 -3.745252 4.552164 1.606302 -1.530674 0.456462 5.797842 -21.657553 -0.352938 -1.131940 -22.789465 22.604122 -26.747620 -5.475060 5.190262 -63.364001 -20.194538 30.158101 178.947170 -79.043458 -163.690625 26.116804 1.310544 -48.475205 29.312829 10.796787 8.096833 37.384087 20.414555 6.681782 -23.675935 24.242088 -15.100135 -42.343526 23.498682 8.938056 
0.193580 0.403357 0.998015 22.209371 -4.774361 91.845202 -0.306851 -4.360457 -12.059271 -1.066072 -0.412180 16.082571 0.792696 11.633846 -13.011093 0.000000 -0.000000 0.000000 -2.134250 2.934040 -2.918972 -2.327139 13.663034 10.163179 3.051677 2.711674 -13.919664 0.000000 -0.000000 0.000000 5.610258 -0.732740 15.369328 6.774168 -3.540845 4.780851 1.862966 -1.205091 0.146136 6.875366 -21.396159 -0.477871 -1.129173 -23.452615 22.585912 -26.774481 -6.172157 5.405444 -63.757179 -20.749697 31.143345 -179.716973 -79.343140 -163.268163 25.554521 -0.085500 -48.312237 29.694244 11.585525 8.856892 36.047895 20.969808 5.527855 -23.593617 22.388532 -15.499291 -43.945295 24.896387 4.136836 
0.197401 0.398458 0.997786 21.146162 -4.350131 92.260939 -0.218946 -4.752331 -13.448150 -1.407063 -2.033274 13.858166 -0.039427 10.122102 -12.936057 0.000000 -0.000000 0.000000 -1.940940 2.608309 -2.813325 -2.336376 14.102486 9.609104 3.383354 3.473303 -13.857736 0.000000 -0.000000 0.000000 5.996085 -0.367570 16.030550 6.813456 -3.340707 4.719213 2.114538 -0.991472 0.024753 7.141493 -21.177190 -0.333503 -0.998623 -23.785041 22.872972 -26.813154 -6.719452 5.088013 -64.000500 -20.723554 31.753928 -179.062666 -79.157748 -163.292490 25.554447 -0.337376 -47.751666 29.735209 12.193114 9.400039 34.785830 20.976917 5.196433 -21.579882 21.887247 -13.709484 -45.299200 24.529760 3.771225 
0.203077 0.391677 0.997844 19.821813 -4.017416 92.718209 -0.349111 -5.748180 -14.835763 -2.184584 -4.866881 10.591101 -1.713693 7.932947 -12.287445 0.000000 -0.000000 0.000000 -1.953921 2.371567 -2.565465 -2.463764 14.294553 9.000402 3.872823 4.237040 -14.376680 0.000000 -0.000000 0.000000 6.269449 0.315057 17.061600 6.873539 -3.134704 4.621455 2.372396 -0.614303 -0.260528 7.338831 -20.977017 -0.043669 -0.671537 -24.285819 22.852833 -26.601388 -7.749280 4.407900 -64.065691 -20.803950 32.797561 -177.447058 -78.964449 -163.978362 25.529917 -0.873370 -46.841793 29.633341 13.235451 9.743148 34.010775 20.571851 5.064407 -20.350763 20.606836 -12.194446 -44.626071 24.670318 4.103928 
0.208841 0.383633 0.997356 18.409078 -3.741908 93.138735 -0.676895 -6.442162 -15.760918 -2.614492 -7.384458 7.332044 -3.928481 4.911240 -11.133638 0.000000 -0.000000 0.000000 -1.925157 2.216246 -2.481333 -2.693694 14.523761 8.902541 4.072320 5.437294 -14.779636 0.000000 -0.000000 0.000000 6.210425 1.174078 18.012271 6.962950 -2.849300 4.494453 2.696241 -0.030053 -0.561583 7.605489 -20.341321 0.387275 -0.315372 -25.248765 22.514564 -26.047297 -8.706709 3.613547 -64.303939 -21.056639 33.928912 -176.014351 -79.020977 -164.583985 25.714256 -1.735398 -45.376846 29.617896 14.189086 10.185145 33.700712 20.433078 5.002860 -18.896818 19.276253 -10.787548 -44.598371 24.082329 4.532422 
0.215980 0.374026 0.995864 17.122743 -3.267437 93.377595 -1.088542 -7.040240 -16.211889 -2.552908 -9.531759 5.004869 -5.834814 2.486269 -10.312927 0.000000 -0.000000 0.000000 -1.701220 2.097630 -2.213073 -2.873912 14.837998 9.079173 4.634269 6.610192 -15.527037 0.000000 -0.000000 0.000000 6.353339 1.976849 18.561329 7.156621 -2.533140 4.714071 2.900286 0.513174 -0.858361 7.730730 -19.576508 0.640816 -0.415145 -26.133876 22.448739 -25.326469 -9.871806 2.804285 -64.372401 -21.198373 35.143393 -174.535312 -78.979050 -165.716576 25.934703 -2.349701 -43.475624 29.926060 15.291918 10.585677 33.652018 20.482195 5.129665 -17.629181 17.407414 -9.590602 -42.043848 23.045177 6.677568 
0.223862 0.362150 0.993375 16.023290 -2.668431 93.391382 -1.583196 -6.986905 -16.508301 -2.761651 -10.063197 4.819904 -6.748388 1.431307 -7.404216 0.000000 -0.000000 0.000000 -1.308614 2.122483 -1.538821 -2.992870 15.123276 9.264949 3.988240 7.188353 -16.224122 0.000000 -0.000000 0.000000 6.421277 2.563113 18.700483 7.475620 -2.123273 5.262961 3.172443 1.176143 -1.233659 7.555395 -18.877587 1.114287 -0.557105 -26.548088 22.070529 -24.610181 -11.132636 2.325889 -64.173942 -21.366190 36.091018 -172.470295 -78.847651 -166.896694 26.278726 -2.451625 -42.181162 30.425341 16.517716 11.306532 33.665324 20.660202 5.049642 -16.403490 15.395441 -8.653081 -40.888304 21.959174 7.274650 
0.234795 0.345299 0.988940 15.335679 -1.702212 93.154535 -2.124820 -6.848668 -16.399600 -2.672441 -9.683975 7.078754 0.423599 2.258345 -4.598646 0.000000 -0.000000 0.000000 -0.517795 2.051079 -0.652473 -2.656524 16.163404 10.567695 2.495926 6.197486 -17.867451 0.000000 -0.000000 0.000000 6.600067 2.637555 18.751898 7.874877 -1.194824 5.700421 3.766528 1.761842 -1.742017 6.539207 -19.750700 1.711600 -0.499637 -25.485309 22.107076 -23.595666 -12.060488 2.221050 -64.244398 -21.473344 36.778557 -169.330397 -77.146028 -168.714061 26.933729 -0.147314 -39.633493 30.036621 18.497596 12.209489 35.577442 20.136664 6.239494 -15.676923 13.721315 -9.300714 -39.376287 20.665970 7.701585 
